<svg version="1.1" xmlns="http://www.w3.org/2000/svg" viewBox="0 0 480.1736111111111 481.1996527777778" width="960.3472222222222" height="962.3993055555557" filter="invert(93%) hue-rotate(180deg)">
  <!-- svg-source:excalidraw -->
  
  <defs>
    <style class="style-fonts">
      @font-face {
        font-family: "Virgil";
        src: url("https://excalidraw.com/Virgil.woff2");
      }
      @font-face {
        font-family: "Cascadia";
        src: url("https://excalidraw.com/Cascadia.woff2");
      }
    </style>
    
  </defs>
  <g stroke-linecap="round" transform="translate(48.141059027777715 10) rotate(0 140.5 53)"><path d="M133.77 -0.67 C149.81 -1.85, 170.2 0.11, 186.25 2.27 C202.3 4.44, 217.22 8.21, 230.06 12.32 C242.91 16.43, 255.17 21.3, 263.32 26.93 C271.47 32.55, 276.59 39.83, 278.94 46.07 C281.29 52.31, 281.37 58.16, 277.41 64.38 C273.44 70.6, 264.95 77.82, 255.16 83.37 C245.38 88.91, 232.52 94.02, 218.72 97.65 C204.91 101.28, 188.87 103.88, 172.36 105.14 C155.84 106.39, 136.26 106.28, 119.63 105.18 C103 104.09, 87.02 101.53, 72.58 98.57 C58.13 95.61, 43.81 92.36, 32.95 87.44 C22.1 82.51, 12.75 75.03, 7.43 69 C2.11 62.96, 0.13 57.32, 1.01 51.22 C1.88 45.12, 5.95 38.49, 12.69 32.39 C19.44 26.29, 29.47 19.11, 41.48 14.6 C53.49 10.09, 68.29 7.6, 84.72 5.32 C101.16 3.04, 129.99 1.66, 140.09 0.91 C150.19 0.16, 145.25 0.22, 145.32 0.81 M179.55 1.52 C195.31 2.26, 211.81 7.26, 225.45 11.24 C239.1 15.22, 252.65 20, 261.42 25.4 C270.19 30.8, 275.28 37.53, 278.07 43.64 C280.86 49.75, 281.39 55.56, 278.17 62.05 C274.96 68.55, 267.97 76.99, 258.77 82.61 C249.57 88.23, 236.7 92.04, 222.99 95.77 C209.28 99.5, 192.55 103.26, 176.5 104.98 C160.44 106.71, 143.49 106.98, 126.67 106.11 C109.84 105.24, 90.53 102.7, 75.54 99.79 C60.55 96.88, 47.6 93.39, 36.72 88.66 C25.84 83.93, 16.42 77.55, 10.26 71.41 C4.09 65.26, -0.49 58.28, -0.28 51.78 C-0.07 45.29, 5.39 38.11, 11.54 32.45 C17.7 26.79, 25.16 22.41, 36.66 17.83 C48.15 13.25, 64.89 7.7, 80.5 4.96 C96.12 2.21, 113.79 2.01, 130.35 1.35 C146.91 0.69, 171.56 0.63, 179.85 0.99 C188.14 1.35, 180.45 2.26, 180.08 3.52" stroke="#1e1e1e" stroke-width="1" fill="none"></path></g><g transform="translate(132.758536800853 40.52334059711296) rotate(0 56.034019470214844 22.5)"><text x="56.034019470214844" y="0" font-family="Virgil, Segoe UI Emoji" font-size="36px" fill="#1e1e1e" text-anchor="middle" style="white-space: pre;" direction="ltr" dominant-baseline="text-before-edge">ripgrep</text></g><g stroke-linecap="round" transform="translate(10 268.6501736111111) rotate(0 59 39)"><path d="M56.49 -0.22 C65.74 -1.25, 76.82 0.4, 85.7 3.43 C94.58 6.46, 104.23 12.38, 109.75 17.94 C115.28 23.5, 118.46 30.26, 118.85 36.79 C119.24 43.31, 116.86 51.07, 112.09 57.06 C107.31 63.06, 98.68 69.26, 90.21 72.75 C81.75 76.24, 71.11 77.78, 61.3 78.01 C51.5 78.24, 40.18 77.15, 31.37 74.11 C22.56 71.07, 13.59 65.33, 8.44 59.75 C3.3 54.17, 0.9 47.2, 0.5 40.63 C0.09 34.05, 1.52 25.95, 6 20.29 C10.49 14.64, 17.76 9.95, 27.39 6.7 C37.01 3.44, 56.34 1.56, 63.76 0.75 C71.19 -0.06, 71.76 1.35, 71.94 1.84 M87.79 3.66 C96.38 6.39, 103.59 13.25, 108.55 19.07 C113.51 24.89, 117.36 32.4, 117.56 38.6 C117.76 44.8, 114.52 50.85, 109.75 56.29 C104.99 61.73, 97.05 67.76, 88.98 71.25 C80.9 74.74, 71.08 76.96, 61.32 77.24 C51.56 77.51, 38.95 75.88, 30.43 72.92 C21.91 69.96, 15.03 64.89, 10.2 59.49 C5.37 54.08, 1.8 46.9, 1.48 40.48 C1.15 34.07, 3.86 26.67, 8.25 21.02 C12.65 15.37, 19.69 10.29, 27.87 6.58 C36.04 2.87, 47.69 -0.72, 57.29 -1.24 C66.89 -1.76, 80.45 2.35, 85.47 3.46 C90.49 4.58, 87.43 4.71, 87.41 5.45" stroke="#1e1e1e" stroke-width="1" fill="none"></path></g><g transform="translate(42.70072859651714 295.07300914483574) rotate(0 26.079971313476562 12.5)"><text x="26.079971313476562" y="0" font-family="Virgil, Segoe UI Emoji" font-size="20px" fill="#1e1e1e" text-anchor="middle" style="white-space: pre;" direction="ltr" dominant-baseline="text-before-edge">rustc</text></g><g stroke-linecap="round" transform="translate(119.66927083333314 149.98784722222223) rotate(0 59 39)"><path d="M41.97 2.12 C50.97 -0.1, 64.38 -0.52, 74.07 0.94 C83.76 2.39, 93.07 6.46, 100.1 10.84 C107.14 15.23, 113.45 20.94, 116.27 27.23 C119.09 33.52, 119.35 42.18, 117.02 48.59 C114.69 54.99, 109.18 60.96, 102.3 65.65 C95.41 70.33, 85.16 74.85, 75.72 76.69 C66.28 78.54, 55.36 78.16, 45.64 76.7 C35.92 75.25, 24.46 72.42, 17.39 67.98 C10.32 63.53, 5.71 56.56, 3.22 50.03 C0.74 43.5, 0.25 35.26, 2.49 28.78 C4.74 22.31, 8.95 15.85, 16.68 11.17 C24.41 6.5, 42.6 2.56, 48.89 0.75 C55.18 -1.06, 54.29 -0.42, 54.42 0.32 M44.68 2.1 C53.61 0.03, 65.13 -0.6, 74.47 1.24 C83.8 3.08, 93.94 8.35, 100.67 13.13 C107.4 17.9, 112.24 23.77, 114.85 29.9 C117.46 36.03, 118.63 43.7, 116.32 49.89 C114.01 56.09, 108.18 62.78, 100.99 67.09 C93.79 71.41, 82.61 73.97, 73.15 75.77 C63.68 77.57, 53.8 79.52, 44.2 77.92 C34.59 76.31, 22.36 71.15, 15.51 66.14 C8.65 61.12, 5.25 53.91, 3.06 47.82 C0.87 41.73, 0.01 35.86, 2.36 29.58 C4.72 23.31, 10.18 15.07, 17.2 10.2 C24.22 5.32, 39.86 1.86, 44.47 0.31 C49.09 -1.24, 44.53 0.03, 44.89 0.9" stroke="#1e1e1e" stroke-width="1" fill="none"></path></g><g transform="translate(153.21791507926434 168.91068275594688) rotate(0 25.2320556640625 20)"><text x="25.2320556640625" y="0" font-family="Virgil, Segoe UI Emoji" font-size="16px" fill="#1e1e1e" text-anchor="middle" style="white-space: pre;" direction="ltr" dominant-baseline="text-before-edge">cargo </text><text x="25.2320556640625" y="20" font-family="Virgil, Segoe UI Emoji" font-size="16px" fill="#1e1e1e" text-anchor="middle" style="white-space: pre;" direction="ltr" dominant-baseline="text-before-edge">build</text></g><g stroke-linecap="round"><g transform="translate(73.54751229512112 265.4338699370894) rotate(0 28.46284903440838 -26.113316509427648)"><path d="M-0.47 0.12 C8.96 -8.32, 47.92 -42.05, 57.4 -50.64 M1.48 -0.86 C10.74 -9.64, 47.78 -44.14, 56.77 -52.35" stroke="#1e1e1e" stroke-width="1" fill="none"></path></g><g transform="translate(73.54751229512112 265.4338699370894) rotate(0 28.46284903440838 -26.113316509427648)"><path d="M43.23 -24.67 C49.37 -36.06, 53.06 -44.76, 56.85 -52.18 M42.86 -26.22 C46.85 -34.36, 52.44 -42.18, 56.75 -51.58" stroke="#1e1e1e" stroke-width="1" fill="none"></path></g><g transform="translate(73.54751229512112 265.4338699370894) rotate(0 28.46284903440838 -26.113316509427648)"><path d="M29.3 -39.74 C40.52 -45.58, 49.29 -48.79, 56.85 -52.18 M28.93 -41.29 C37.47 -44.49, 47.55 -47.48, 56.75 -51.58" stroke="#1e1e1e" stroke-width="1" fill="none"></path></g></g><mask></mask><g stroke-linecap="round" transform="translate(226.8828125 268.11284722222223) rotate(0 59 39)"><path d="M77.04 1.36 C86.17 2.91, 97.68 7.92, 104.31 12.91 C110.94 17.9, 115.01 24.89, 116.83 31.32 C118.65 37.74, 118.21 45.41, 115.21 51.44 C112.21 57.48, 106.44 63.31, 98.84 67.54 C91.23 71.77, 79.31 75.27, 69.59 76.81 C59.87 78.35, 49.83 78.91, 40.54 76.77 C31.24 74.63, 20.52 69.09, 13.81 63.96 C7.11 58.84, 2 52.19, 0.33 46.04 C-1.35 39.88, 0.57 33, 3.79 27.03 C7 21.07, 12.42 14.6, 19.64 10.22 C26.85 5.85, 36.66 1.87, 47.06 0.78 C57.46 -0.3, 75.67 3.18, 82.05 3.72 C88.42 4.25, 85.76 3.64, 85.31 3.98 M69.89 1.94 C79.27 2.47, 89.99 6.49, 97.26 10.45 C104.53 14.42, 110.32 19.78, 113.52 25.74 C116.73 31.7, 117.93 39.81, 116.49 46.2 C115.05 52.58, 111.19 59.14, 104.89 64.04 C98.59 68.93, 88.28 73.51, 78.69 75.54 C69.1 77.57, 56.76 77.57, 47.36 76.19 C37.95 74.82, 29.71 71.18, 22.26 67.3 C14.81 63.42, 6.21 58.63, 2.64 52.93 C-0.93 47.23, -1.09 39.53, 0.84 33.11 C2.77 26.69, 7.67 19.54, 14.23 14.43 C20.8 9.31, 31.21 4.81, 40.25 2.41 C49.29 0.02, 63.54 0.14, 68.47 0.05 C73.41 -0.05, 69.92 0.92, 69.86 1.84" stroke="#1e1e1e" stroke-width="1" fill="none"></path></g><g transform="translate(258.84350508577495 284.5356827559469) rotate(0 26.82000732421875 22.5)"><text x="26.82000732421875" y="0" font-family="Virgil, Segoe UI Emoji" font-size="36px" fill="#1e1e1e" text-anchor="middle" style="white-space: pre;" direction="ltr" dominant-baseline="text-before-edge">/lib</text></g><g stroke-linecap="round" transform="translate(103.75781249999989 388.5468749999998) rotate(0 59 39)"><path d="M65.61 0.04 C75.07 0.26, 86.63 4.12, 94.53 7.98 C102.43 11.84, 109.27 17.28, 113.01 23.23 C116.76 29.18, 118 37.25, 116.99 43.69 C115.98 50.13, 112.72 56.79, 106.96 61.88 C101.2 66.97, 91.37 71.49, 82.42 74.25 C73.46 77, 62.96 79.12, 53.23 78.39 C43.5 77.66, 32.2 73.88, 24.03 69.85 C15.85 65.82, 8.21 60.11, 4.18 54.21 C0.16 48.31, -1.24 40.87, -0.13 34.44 C0.98 28.02, 4.78 20.8, 10.82 15.65 C16.86 10.5, 25.14 5.72, 36.12 3.52 C47.1 1.32, 68.29 1.94, 76.71 2.45 C85.13 2.96, 87.01 6.11, 86.64 6.59 M33.5 2.62 C41.75 -0.78, 54.29 -0.84, 64.09 -0.36 C73.9 0.13, 84.32 1.96, 92.35 5.53 C100.37 9.11, 108.18 15.34, 112.26 21.09 C116.33 26.84, 117.47 33.67, 116.79 40.01 C116.11 46.34, 113.28 53.45, 108.16 59.12 C103.04 64.79, 94.79 70.94, 86.06 74.03 C77.33 77.13, 65.73 78.27, 55.78 77.67 C45.83 77.07, 34.78 73.77, 26.38 70.43 C17.97 67.09, 9.84 63.16, 5.33 57.65 C0.82 52.13, -1.38 44.06, -0.69 37.33 C0 30.6, 3.71 22.7, 9.48 17.27 C15.25 11.85, 30.05 6.96, 33.92 4.79 C37.8 2.62, 32.51 3.57, 32.73 4.26" stroke="#1e1e1e" stroke-width="1" fill="none"></path></g><g transform="translate(126.41249770052093 404.9697105337244) rotate(0 36.126014709472656 22.5)"><text x="36.126014709472656" y="0" font-family="Virgil, Segoe UI Emoji" font-size="36px" fill="#1e1e1e" text-anchor="middle" style="white-space: pre;" direction="ltr" dominant-baseline="text-before-edge">musl</text></g><g stroke-linecap="round" transform="translate(352.1736111111111 393.1996527777778) rotate(0 59 39)"><path d="M44.68 1.56 C53.27 -0.72, 64.49 -1.17, 73.73 0.55 C82.98 2.27, 93.06 7.2, 100.15 11.88 C107.23 16.56, 113.69 22.55, 116.25 28.61 C118.8 34.67, 117.96 42, 115.49 48.25 C113.02 54.5, 108.41 61.34, 101.42 66.14 C94.44 70.93, 83.11 75.31, 73.57 77.03 C64.03 78.75, 53.74 78.36, 44.2 76.46 C34.65 74.57, 23.45 70.13, 16.29 65.63 C9.13 61.13, 3.49 55.73, 1.25 49.48 C-1 43.22, 0.04 34.41, 2.83 28.11 C5.62 21.8, 10.31 16.29, 17.98 11.66 C25.66 7.03, 43.06 2.26, 48.89 0.34 C54.72 -1.57, 53 -0.54, 52.97 0.17 M79.52 1.49 C88.56 3.53, 98.46 10.26, 105.01 15.51 C111.56 20.77, 117.29 26.77, 118.83 33.01 C120.36 39.24, 118.15 46.63, 114.23 52.93 C110.31 59.23, 103.03 66.79, 95.33 70.8 C87.62 74.82, 77.42 76.19, 68 77.01 C58.58 77.83, 47.95 77.83, 38.81 75.72 C29.67 73.61, 19.75 69.45, 13.17 64.35 C6.58 59.26, 0.88 51.85, -0.68 45.16 C-2.24 38.48, 0.07 30.1, 3.82 24.23 C7.57 18.36, 14.2 14.09, 21.79 9.94 C29.39 5.79, 39.81 0.36, 49.39 -0.66 C58.97 -1.68, 74.04 3.04, 79.26 3.82 C84.49 4.6, 80.73 3.62, 80.74 4.04" stroke="#1e1e1e" stroke-width="1" fill="none"></path></g><g transform="translate(375.45830119444463 409.6224883115025) rotate(0 35.496009826660156 22.5)"><text x="35.496009826660156" y="0" font-family="Virgil, Segoe UI Emoji" font-size="36px" fill="#1e1e1e" text-anchor="middle" style="white-space: pre;" direction="ltr" dominant-baseline="text-before-edge">pcre</text></g><g stroke-linecap="round"><g transform="translate(283.27430555555554 266.4704861111111) rotate(0 -29.495689594295982 -25.244263901787576)"><path d="M0 0.38 C-9.58 -7.84, -48.42 -40.78, -57.99 -49.25 M-1.45 -0.47 C-11.16 -9.01, -49.58 -42.75, -58.99 -50.86" stroke="#1e1e1e" stroke-width="1" fill="none"></path></g><g transform="translate(283.27430555555554 266.4704861111111) rotate(0 -29.495689594295982 -25.244263901787576)"><path d="M-30.37 -40.26 C-36.62 -42.1, -45.76 -44.28, -58.93 -50.11 M-30.45 -39.4 C-38.78 -43.05, -47.9 -47.34, -58.76 -51.54" stroke="#1e1e1e" stroke-width="1" fill="none"></path></g><g transform="translate(283.27430555555554 266.4704861111111) rotate(0 -29.495689594295982 -25.244263901787576)"><path d="M-43.86 -24.79 C-46.64 -30.62, -52.3 -36.79, -58.93 -50.11 M-43.93 -23.93 C-48 -32.48, -52.94 -41.57, -58.76 -51.54" stroke="#1e1e1e" stroke-width="1" fill="none"></path></g></g><mask></mask><g stroke-linecap="round"><g transform="translate(180.2404513888888 149.11371527777777) rotate(0 -0.6094999058415169 -16.16090114298794)"><path d="M0.09 -0.17 C0.14 -5.57, -0.02 -26.81, -0.32 -32.15 M-1.32 -1.3 C-1.31 -6.57, -0.61 -25.96, -0.85 -30.96" stroke="#1e1e1e" stroke-width="1" fill="none"></path></g><g transform="translate(180.2404513888888 149.11371527777777) rotate(0 -0.6094999058415169 -16.16090114298794)"><path d="M4.33 -15.12 C2.32 -20.64, 0.88 -23.59, -1.6 -30.21 M4.06 -16.39 C3.64 -19.41, 2.55 -22.94, -1.3 -30.91" stroke="#1e1e1e" stroke-width="1" fill="none"></path></g><g transform="translate(180.2404513888888 149.11371527777777) rotate(0 -0.6094999058415169 -16.16090114298794)"><path d="M-6.45 -15.1 C-5.77 -20.64, -4.52 -23.59, -1.6 -30.21 M-6.72 -16.38 C-4.71 -19.36, -3.35 -22.9, -1.3 -30.91" stroke="#1e1e1e" stroke-width="1" fill="none"></path></g></g><mask></mask><g stroke-linecap="round"><g transform="translate(175.69339385548153 387.03961647485005) rotate(0 34.77629969837574 -25.170393843371244)"><path d="M-0.38 0.73 C11.15 -7.87, 58.55 -42.32, 69.93 -51.07 M1.62 0.07 C13.03 -8.38, 58.08 -41.12, 69.52 -49.63" stroke="#1e1e1e" stroke-width="1" fill="none"></path></g><g transform="translate(175.69339385548153 387.03961647485005) rotate(0 34.77629969837574 -25.170393843371244)"><path d="M54.09 -22.95 C58.5 -35.3, 63.31 -43.76, 70.57 -48.71 M53.09 -25.26 C57.18 -32.36, 62.69 -38.01, 70.29 -48.85" stroke="#1e1e1e" stroke-width="1" fill="none"></path></g><g transform="translate(175.69339385548153 387.03961647485005) rotate(0 34.77629969837574 -25.170393843371244)"><path d="M41.95 -39.5 C50.81 -45.83, 60.01 -48.32, 70.57 -48.71 M40.95 -41.81 C48.36 -44.15, 57.35 -45.06, 70.29 -48.85" stroke="#1e1e1e" stroke-width="1" fill="none"></path></g></g><mask></mask><g stroke-linecap="round"><g transform="translate(398.28992546100324 389.8636934704913) rotate(0 -32.92932669056091 -25.94313461370956)"><path d="M0.8 0.04 C-10.33 -8.36, -54.63 -41.86, -66.02 -50.3 M-0.24 -0.98 C-11.55 -9.71, -55.84 -43.32, -66.66 -51.93" stroke="#1e1e1e" stroke-width="1" fill="none"></path></g><g transform="translate(398.28992546100324 389.8636934704913) rotate(0 -32.92932669056091 -25.94313461370956)"><path d="M-38.02 -41.81 C-46.96 -47.5, -57.93 -49.6, -66.45 -53.75 M-37.62 -43.17 C-44.69 -45.28, -51.2 -46.69, -66.97 -52.81" stroke="#1e1e1e" stroke-width="1" fill="none"></path></g><g transform="translate(398.28992546100324 389.8636934704913) rotate(0 -32.92932669056091 -25.94313461370956)"><path d="M-50.58 -25.58 C-54.95 -37.29, -61.33 -45.31, -66.45 -53.75 M-50.19 -26.95 C-54.35 -32.74, -58.05 -37.76, -66.97 -52.81" stroke="#1e1e1e" stroke-width="1" fill="none"></path></g></g><mask></mask></svg>